<?xml version="1.0" encoding="UTF-8" standalone="no"?>
<svg
   height="1000px"
   version="1.2"
   width="1000px"
   id="svg5"
   sodipodi:docname="lines2.svg"
   inkscape:version="1.3.2 (091e20e, 2023-11-25)"
   xmlns:inkscape="http://www.inkscape.org/namespaces/inkscape"
   xmlns:sodipodi="http://sodipodi.sourceforge.net/DTD/sodipodi-0.dtd"
   xmlns="http://www.w3.org/2000/svg"
   xmlns:svg="http://www.w3.org/2000/svg">
  <sodipodi:namedview
     id="namedview5"
     pagecolor="#ffffff"
     bordercolor="#666666"
     borderopacity="1.0"
     inkscape:showpageshadow="2"
     inkscape:pageopacity="0.0"
     inkscape:pagecheckerboard="0"
     inkscape:deskcolor="#d1d1d1"
     inkscape:zoom="0.64404435"
     inkscape:cx="571.38923"
     inkscape:cy="534.12471"
     inkscape:window-width="1280"
     inkscape:window-height="747"
     inkscape:window-x="351"
     inkscape:window-y="1105"
     inkscape:window-maximized="0"
     inkscape:current-layer="svg5" />
  <defs
     id="defs1" />
  <polyline
     fill="none"
     points="69.9511,446.4372 67.4109,454.031 65.9709,461.7569 65.6818,469.5947 66.5931,477.5217 68.7523,485.5131 72.2043,493.542 76.9904,501.5792 83.1478,509.593 90.7082,517.5498 99.6977,525.4137 110.1351,533.147 122.0314,540.7103 135.3888,548.0626 150.1998,555.1619 166.4465,561.9653 184.0997,568.4296 203.1186,574.5119 223.4504,580.1696 245.0299,585.3616 267.7794,590.0484 291.6095,594.193 316.4189,597.7614 342.0956,600.7229 368.5175,603.0511 395.554,604.7238 423.0672,605.7242 450.9133,606.0404 478.9447,605.6659 507.012,604.6002 534.9649,602.8481 562.6555,600.42 589.9391,597.3319 616.6766,593.6045 642.7355,589.2636 667.9921,584.3389 692.332,578.864 715.6515,572.8758 737.8585,566.4134 758.8725,559.5183 778.6253,552.2332 797.061,544.6017 814.1356,536.6676 829.8168,528.4745 844.0834,520.0652 856.9248,511.4817 868.3401,502.7642 878.3374,493.9514 886.9326,485.0801 894.1487,476.1847 900.0152,467.2975 904.5668,458.4485 907.8426,449.6651 909.8852,440.9725 910.7402,432.3937 910.4556,423.9491 909.0806,415.657 906.6656,407.5339 903.2611,399.5939 898.918,391.8495 893.6868,384.3113 887.6171,376.9884 880.7576,369.8885 873.1557,363.018"
     stroke="black"
     id="polyline1"
     style="stroke-width:3;stroke:#ff6600" />
  <polyline
     fill="none"
     points="233.473,301.487 223.146,305.2332 213.3053,309.1573 203.9814,313.2555 195.2051,317.5234 187.0083,321.9559 179.4238,326.5476 172.4848,331.2918 166.2248,336.1816 160.678,341.2088 155.8786,346.3645 151.8605,351.6389 148.6577,357.0211 146.3034,362.4992 144.8297,368.0601 144.2679,373.6897 144.6472,379.3728 145.9952,385.0927 148.3369,390.8321 151.6942,396.5721 156.0861,402.2928 161.5274,407.9736 168.0288,413.5924 175.5961,419.1267 184.23,424.5529 193.9253,429.8472 204.671,434.9849 216.4495,439.9416 229.2365,444.6924 243.0008,449.2128 257.7043,453.4788 273.3015,457.4671 289.74,461.1552 306.9606,464.522 324.8974,467.5478 343.4786,470.2148 362.6263,472.507 382.258,474.4107 402.2866,475.9146 422.6215,477.0099 443.1697,477.6905 463.8363,477.9532 484.5256,477.7974 505.1422,477.2256 525.5919,476.2427 545.7825,474.8564 565.6251,473.0773 585.0345,470.9181 603.9299,468.3936 622.2361,465.5209 639.8835,462.3188 656.8087,458.8075 672.955,455.0085 688.2724,450.9445 702.7179,446.6386 716.2553,442.1147 728.8554,437.3968 740.4953,432.5088 751.159,427.4746 760.8362,422.3177 769.5227,417.061 777.2192,411.7266 783.9317,406.3359 789.6705,400.9095 794.45,395.4669 798.2883,390.0263 801.2061,384.6052 803.2274,379.2198 804.3782,373.885 804.6863,368.615 804.1813,363.4224 802.8936,358.3192 800.855,353.3159 798.0973,348.4223 794.6529,343.6472 790.5547,338.9984 785.8349,334.4829 780.5259,330.1069 774.6595,325.8758 768.2671,321.7943 761.3795,317.8667 754.0268,314.0965 746.2384,310.4866 738.0429,307.0395 729.468,303.7574 720.5408,300.6419 711.2874,297.6943 701.7331,294.9157 691.9022,292.3068 681.8187,289.8682 671.5052,287.6 660.984,285.5024 650.2765,283.5752 639.4035,281.8184 628.3851,280.2315 617.241,278.8142 605.9899,277.5658 594.6505,276.4859 583.2409,275.5736 571.7785,274.8284 560.2809,274.2496 548.7648,273.8361 537.2469,273.5873 525.7438,273.5023 514.2718,273.5803 502.847,273.8202 491.4854,274.2211 480.2031,274.7819 469.016,275.5018 457.9403,276.3796 446.9918,277.4141 436.1869,278.6041 425.5417,279.9484 415.0727,281.4454 404.7964,283.0939 394.7295,284.892 384.889,286.8382 375.2921,288.9306 365.956,291.167 356.8985,293.5454 348.1371,296.0631 339.6899,298.7177 331.5749,301.5062 323.8107,304.4255 316.4154,307.472 309.4077,310.6421 302.8061,313.9315 296.6291,317.336 290.8952,320.8507 285.6226,324.4702 280.8295,328.1891 276.5334,332.0011 272.7518,335.8998 269.5014,339.8782 266.7982,343.9288 264.6575,348.0435 263.0938,352.2139 262.1202,356.4311 261.7489,360.6856 261.9904,364.9673 262.8539,369.266 264.3467,373.5707 266.4744,377.87 269.2404,382.1524 272.646,386.4058 276.6901,390.6177 281.3692,394.7757 286.677,398.8668 292.6046,402.8782 299.1403,406.7969 306.2694,410.61 313.9744,414.3046 322.2348,417.8681 331.027,421.2881 340.3247,424.5528 350.0987,427.6507 360.3169,430.571 370.9449,433.3033"
     stroke="black"
     id="polyline2"
     style="stroke-width:3;stroke:#ff6600" />
  <polyline
     fill="none"
     points="669.9127,420.9191 674.5372,418.1707 678.6,415.3733 682.1032,412.5381 685.0508,409.6758 687.4487,406.7972 689.3044,403.9122 690.6267,401.0309 691.4263,398.1624 691.7145,395.3158 691.5042,392.4996 690.8089,389.7217 689.6431,386.9899 688.0218,384.3113 685.9608,381.6926 683.4763,379.1401 680.5847,376.6599 677.303,374.2572 673.6481,371.9373 669.6372,369.7049 665.2876,367.5644 660.6165,365.5196 655.641,363.5744 650.3785,361.7321 644.8458,359.9958 639.0597,358.3683 633.0371,356.8521 626.7943,355.4495 620.3478,354.1626 613.7135,352.9933 606.9073,351.9432 599.9448,351.0136 592.8413,350.206 585.6121,349.5213 578.272,348.9605 570.8357,348.5244 563.3178,348.2137 555.7325,348.0287 548.094,347.9701 540.4161,348.0378 532.7125,348.2323 524.997,348.5532 517.2828,349.0008 509.5835,349.5747 501.912,350.2746 494.2815,351.1 486.705,352.0504 479.1954,353.1252 471.7655,354.3236 464.4281,355.6446 457.1958,357.0873 450.0813,358.6504 443.0972,360.3327 436.2558,362.1328 429.5699,364.0491 423.0516,366.0798 416.7134,368.223 410.5676,370.4767 404.6264,372.8386 398.9018,375.3062 393.4059,377.877 388.1506,380.548 383.1476,383.3162 378.4084,386.1783 373.9445,389.1309 369.767,392.1701 365.8868,395.2919 362.3144,398.4921 359.0601,401.7661 356.1338,405.1092 353.5448,408.5162 351.3021,411.9819 349.4141,415.5006 347.8887,419.0665 346.7329,422.6733 345.9532,426.3147"
     stroke="black"
     id="polyline3"
     style="stroke-width:3;stroke:#ff6600" />
  <polyline
     fill="none"
     points="460.6619,794.0739 483.0593,795.0098 505.6652,795.247 528.3722,794.7781 551.0713,793.6009 573.6533,791.7179 596.0097,789.1368 618.0341,785.87 639.6234,781.9347 660.6784,777.3525 681.1054,772.1491 700.8166,766.354 719.731,759.9998"
     stroke="black"
     id="polyline4"
     style="stroke-width:3;stroke:#ff6600" />
  <polyline
     fill="none"
     points="85.1532,612.8712 90.5206,622.4254 97.2655,631.9529 105.4214,641.4132 115.0158,650.7635 126.069,659.9586 138.5932,668.9509 152.5919,677.6911 168.0586,686.1282 184.9762,694.2102 203.3161,701.8846 223.0376,709.0987 244.0876,715.8006 266.4002,721.9397 289.8967,727.4672 314.4857,732.3375 340.0637,736.5082 366.5157,739.941 393.7162,742.6027 421.5305,744.4655 449.816,745.5077 478.4242,745.7138 507.2019,745.0754 535.9937,743.5908 564.644,741.2653 592.9986,738.1113 620.907,734.1477 648.2242,729.3999 674.8126,723.8993 700.5431,717.6823 725.2969,710.7903 748.9662,703.2687 771.4555,695.1662 792.6817,686.5339 812.5744,677.4247 831.0766,667.8928 848.1433,657.9924 863.7424,647.7775 877.8534,637.3016 890.4667,626.6163 901.5832,615.7717 911.213,604.8157 919.3746,593.7935 926.0938,582.7478 931.4031,571.7184 935.3403,560.7421 937.9478,549.8528"
     stroke="black"
     id="polyline5"
     style="stroke-width:3;stroke:#ff6600" />
</svg>
